<?xml version="1.0" encoding="UTF-8" standalone="no"?><svg xmlns="http://www.w3.org/2000/svg" xmlns:xlink="http://www.w3.org/1999/xlink" fill="#423f32" height="300" preserveAspectRatio="xMidYMid meet" version="1" viewBox="0.0 0.0 300.0 300.0" width="300" zoomAndPan="magnify"><g id="change1_1"><path d="M245,0H55C24.673,0,0,24.674,0,55v190c0,30.326,24.673,55,55,55h91.806V189.981h-21.318v-37.305h21.318v-6.329 c0-19.65,5.997-41.303,20.653-54.625c12.658-11.99,30.309-16.32,44.966-16.32c11.326,0,19.986,1.331,26.979,3.33l-1.999,38.969 c-4.33-1.332-9.659-2.331-16.32-2.331c-16.655,0-23.648,12.99-23.648,28.978v8.328h32.64v37.305h-32.308V300H245 c30.327,0,55-24.674,55-55V55C300,24.674,275.327,0,245,0z" fill="inherit"/></g></svg>