<?xml version="1.0" encoding="UTF-8" standalone="no"?><svg xmlns="http://www.w3.org/2000/svg" xmlns:xlink="http://www.w3.org/1999/xlink" data-name="Layer 1" fill="#000000" height="326.6" preserveAspectRatio="xMidYMid meet" version="1" viewBox="0.0 0.0 438.6 326.6" width="438.6" zoomAndPan="magnify"><g id="change1_1"><path d="M219.33,326.59c-57.7,0-112.12-16.42-153.24-46.25C23.47,249.43,0,207.87,0,163.3s23.47-86.14,66.09-117C107.21,16.42,161.63,0,219.33,0S331.44,16.42,372.56,46.25c42.62,30.91,66.09,72.47,66.09,117.05s-23.47,86.13-66.09,117C331.44,310.17,277,326.59,219.33,326.59Z" fill="#ffffff"/></g><g id="change2_1"><path d="M417.73,163.3c0,79.46-88.83,143.88-198.4,143.88S20.92,242.76,20.92,163.3,109.75,19.41,219.33,19.41,417.73,83.83,417.73,163.3Z" fill="#c9a1ef"/></g><g id="change3_1"><path d="M121.48,288.49a210.44,210.44,0,0,1-34.09-17.74c45.9-59.68,119.48-96.52,159-113.11l-1.54,21.93C194.51,206.68,148.37,256.11,121.48,288.49ZM83.83,208.05a313.28,313.28,0,0,1,132.73-76.13l-.34-.28a6.43,6.43,0,0,1,2.45-11.27L256.32,111l1.89-5c-2-.08-4.3-.13-6.87-.13-15.81,0-41.87,2-73.84,11.78-38.88,11.93-92.45,37.84-145.08,94a133.32,133.32,0,0,0,20.94,30.5A311.88,311.88,0,0,1,83.83,208.05Z" fill="#1078f1"/></g><g id="change1_2"><path d="M87.39,270.75c-1.19-.77-2.37-1.55-3.53-2.34a176.25,176.25,0,0,1-21.54-17.15q-4.71-4.42-9-9.11a312.28,312.28,0,0,1,163.2-110.23l8,6.39,18,14.31,4,3.2-.13,1.82C206.87,174.23,133.29,211.07,87.39,270.75Z" fill="#ffffff"/></g><g id="change4_1"><path d="M266,100.76l-2.67,7.13-1.89,5-1,2.71-2.81.7L220,125.7a.91.91,0,0,0-.69.71.89.89,0,0,0,.33.93l.35.28,8,6.39,18,14.31,4,3.2,2.26,1.8-.2,2.89-.13,1.82L250.38,180l-.21,3-2.67,1.44C221,198.7,178.55,228.71,126.86,290.62c-1.81-.69-3.6-1.41-5.38-2.14,26.9-32.38,73-81.81,123.41-108.91l1.54-21.93.13-1.82-4-3.2-18-14.31-8-6.39-.34-.28a6.43,6.43,0,0,1,2.45-11.27L256.32,111l1.89-5c-2-.08-4.3-.13-6.87-.13-15.81,0-41.87,2-73.84,11.78-38.88,11.93-92.45,37.84-145.08,94-.87-1.77-1.71-3.56-2.49-5.37,23.83-25.17,49.83-46.35,77.34-63a307.89,307.89,0,0,1,68.62-31c32.39-9.93,58.91-12,75.45-12,2.41,0,4.8,0,7.08.14ZM121.48,288.49h0l-.93-.39Z" fill="inherit"/></g><g id="change5_1"><path d="M343.6,113.19a3.41,3.41,0,0,1-.52,3.59L317.63,147.1a1.5,1.5,0,0,0-.3,1.36l10.55,38.16a3.4,3.4,0,0,1-1,3.48,3.42,3.42,0,0,1-3.57.62l-36.7-14.83a1.49,1.49,0,0,0-1.39.13l-33,21.83a3.49,3.49,0,0,1-3.63.1,3.41,3.41,0,0,1-1.69-3.21l.93-13.31.12-1.75.13-1.75,1.51-21.57.08-1.11a1.54,1.54,0,0,0-.56-1.28l-3.26-2.6-17.94-14.29-7.7-6.13-2.06-1.65a3.43,3.43,0,0,1,1.31-6l38.41-9.57a1.5,1.5,0,0,0,1-.93l2.5-6.66.55-1.46.55-1.47,10.3-27.48a3.44,3.44,0,0,1,2.75-2.2h.12l.35,0a3.42,3.42,0,0,1,2.91,1.62l21,33.57a1.52,1.52,0,0,0,1.21.71l39.54,1.76A3.42,3.42,0,0,1,343.6,113.19Z" fill="#fde962"/></g><g id="change4_2"><path d="M276,73.48a3.42,3.42,0,0,1,2.91,1.62l21,33.57a1.52,1.52,0,0,0,1.21.71l39.54,1.76a3.43,3.43,0,0,1,2.48,5.64L317.63,147.1a1.5,1.5,0,0,0-.3,1.36l10.55,38.16a3.4,3.4,0,0,1-1,3.48,3.37,3.37,0,0,1-1.82.84,3.55,3.55,0,0,1-.46,0,3.37,3.37,0,0,1-1.29-.25l-36.7-14.83a1.36,1.36,0,0,0-.56-.11,1.54,1.54,0,0,0-.83.24l-33,21.83a3.44,3.44,0,0,1-1.43.53,3.52,3.52,0,0,1-2.2-.43,3.41,3.41,0,0,1-1.69-3.21l.93-13.31.12-1.75.13-1.75,1.51-21.57.08-1.11a1.54,1.54,0,0,0-.56-1.28l-3.26-2.6-17.94-14.29-7.7-6.13-2.06-1.65a3.43,3.43,0,0,1,1.31-6l38.41-9.57a1.5,1.5,0,0,0,1-.93l2.5-6.66.55-1.46.55-1.47,10.3-27.48a3.44,3.44,0,0,1,2.75-2.2h.12l.35,0m0-5.5a8.85,8.85,0,0,0-.89,0h-.33a8.92,8.92,0,0,0-7.15,5.72l-10.3,27.47-.55,1.48-.55,1.46-1.76,4.69-36.37,9.06a8.94,8.94,0,0,0-3.41,15.66l2.07,1.65,7.69,6.13,17.94,14.29L244,157l-1.44,20.59-.12,1.74-.13,1.76-.93,13.3a8.94,8.94,0,0,0,8.92,9.56,8.42,8.42,0,0,0,1.22-.08,8.92,8.92,0,0,0,3.7-1.39l31.28-20.67,34.75,14a8.88,8.88,0,0,0,3.35.65,8.2,8.2,0,0,0,1.21-.08,8.93,8.93,0,0,0,7.4-11.23l-10-36.13,24.11-28.71a8.94,8.94,0,0,0-6.45-14.68L303.4,104l-19.85-31.8A8.9,8.9,0,0,0,276,68Z" fill="inherit"/></g></svg>