<?xml version="1.0" encoding="UTF-8" standalone="no"?><svg xmlns="http://www.w3.org/2000/svg" xmlns:xlink="http://www.w3.org/1999/xlink" data-name="Layer 1" fill="#000000" height="415.2" preserveAspectRatio="xMidYMid meet" version="1" viewBox="0.0 -0.0 424.6 415.2" width="424.6" zoomAndPan="magnify"><g id="change1_1"><path d="M416.87,207.61c0,14.35-35.19,24.55-38.24,38-3.15,13.86,24.05,38.29,18,50.79-6.14,12.71-42.26,6.63-51,17.55s5.16,44.83-5.81,53.59S299,355.17,286.33,361.3c-12.51,6-14.63,42.61-28.49,45.76-13.42,3.05-31.16-28.91-45.51-28.91s-32.08,32-45.51,28.91c-13.86-3.15-16-39.72-28.49-45.76-12.71-6.13-42.62,14.94-53.53,6.22s3-42.62-5.81-53.59-44.84-4.84-51-17.55c-6-12.5,21.17-36.93,18-50.79C43,232.16,7.8,222,7.8,207.61S43,183.06,46,169.64c3.15-13.86-24-38.29-18-50.8,6.13-12.71,42.25-6.63,51-17.55S73.83,56.46,84.8,47.7s40.82,12.35,53.53,6.22c12.51-6,14.63-42.61,28.49-45.76,13.43-3,31.17,28.92,45.51,28.92s32.09-32,45.51-28.92c13.86,3.15,16,39.73,28.49,45.76C299,60.05,329,39,339.87,47.7s-3,42.62,5.81,53.59,44.83,4.84,51,17.55c6,12.51-21.17,36.94-18,50.8C381.68,183.06,416.87,193.26,416.87,207.61Z" fill="#df7d62"/></g><g id="change2_1"><path d="M170.11,415.22a22.69,22.69,0,0,1-5-.55c-14.72-3.35-20.31-18.45-25.24-31.78-1.49-4-3.84-10.35-5.62-13.17-3.47.33-9.35,2.26-14.16,3.83-8,2.61-16.17,5.31-24,5.31a25.16,25.16,0,0,1-16.14-5.24c-11.68-9.33-10.18-25.25-8.87-39.29.41-4.34,1.06-11.21.64-14.55-3.15-1.14-10-2-14.24-2.58-14-1.83-29.94-3.91-36.46-17.43-6.45-13.36,1.75-27,9-39,2.29-3.79,5.91-9.8,7-13-2.34-2.34-7.94-6-11.48-8.31C13.53,231.64,0,222.79,0,207.61s13.53-24,25.47-31.83c3.54-2.32,9.14-6,11.48-8.31-1.06-3.23-4.68-9.24-7-13-7.23-12-15.43-25.63-9-39C27.52,101.93,43.42,99.86,57.46,98c4.29-.56,11.09-1.45,14.24-2.58.42-3.34-.23-10.22-.64-14.56-1.31-14-2.81-30,8.87-39.28a25.17,25.17,0,0,1,16.14-5.25c7.84,0,16.06,2.7,24,5.31,4.81,1.58,10.69,3.51,14.16,3.84,1.78-2.82,4.13-9.17,5.62-13.18C144.79,19,150.38,3.9,165.1.56a22.7,22.7,0,0,1,5-.56c12.17,0,21.63,9.12,30.78,17.94,3.28,3.16,8.53,8.22,11.44,9.88,2.92-1.66,8.16-6.72,11.45-9.88C232.93,9.12,242.39,0,254.55,0a22.7,22.7,0,0,1,5,.56C274.28,3.9,279.88,19,284.81,32.33c1.48,4,3.83,10.36,5.62,13.18,3.46-.33,9.34-2.26,14.15-3.84,7.95-2.61,16.18-5.31,24-5.31a25.18,25.18,0,0,1,16.15,5.25c11.67,9.32,10.18,25.24,8.86,39.28-.41,4.34-1.05,11.22-.63,14.56,3.15,1.13,9.95,2,14.24,2.58,14,1.83,29.94,3.9,36.46,17.42,6.44,13.36-1.76,27-9,39-2.28,3.79-5.9,9.8-7,13,2.34,2.33,7.94,6,11.48,8.31,11.93,7.8,25.46,16.65,25.46,31.83s-13.53,24-25.46,31.84c-3.54,2.31-9.14,6-11.48,8.31,1.06,3.23,4.68,9.24,7,13,7.23,12,15.43,25.62,9,39s-22.43,15.59-36.46,17.42c-4.29.56-11.09,1.44-14.24,2.58-.42,3.34.22,10.21.63,14.55,1.32,14,2.81,30-8.86,39.29a25.17,25.17,0,0,1-16.15,5.24c-7.83,0-16.06-2.7-24-5.31-4.81-1.57-10.69-3.5-14.15-3.83-1.79,2.82-4.14,9.16-5.62,13.17-4.93,13.33-10.53,28.43-25.25,31.78a22.62,22.62,0,0,1-5,.55c-12.16,0-21.63-9.12-30.78-17.94-3.28-3.16-8.52-8.21-11.44-9.88-2.91,1.67-8.16,6.72-11.44,9.88-9.15,8.82-18.61,17.94-30.77,17.94Z" fill="#ffffff"/></g><g id="change3_1"><path d="M409,207.61c0,13.8-33.84,23.61-36.78,36.52-3,13.33,23.13,36.83,17.33,48.85-5.9,12.23-40.64,6.38-49,16.88s5,43.12-5.58,51.54-39.27-11.88-51.49-6c-12,5.8-14.07,41-27.4,44-12.91,2.93-30-27.81-43.77-27.81s-30.86,30.74-43.77,27.81c-13.33-3-15.37-38.21-27.39-44-12.23-5.9-41,14.37-51.49,6s2.84-41-5.59-51.54S41,305.21,35.07,293c-5.8-12,20.36-35.52,17.33-48.85-2.93-12.91-36.77-22.72-36.77-36.52S49.47,184,52.4,171.09c3-13.33-23.13-36.82-17.33-48.85,5.9-12.23,40.64-6.38,49-16.88s-5-43.11,5.59-51.54,39.26,11.88,51.49,6c12-5.8,14.07-41,27.39-44,12.91-2.94,30,27.81,43.77,27.81S243.19,12.86,256.1,15.8c13.33,3,15.37,38.2,27.4,44,12.22,5.9,41-14.36,51.49-6s-2.84,41,5.58,51.54,43.12,4.66,49,16.88c5.8,12-20.36,35.52-17.33,48.85C375.2,184,409,193.81,409,207.61Z" fill="#1078f1"/></g><g id="change4_1"><path d="M324.44,160.76,281.2,212.12A19.37,19.37,0,0,0,278,231.64l24.39,62.55a6.28,6.28,0,0,1-8.2,8.1L232,277a19.37,19.37,0,0,0-19.57,3l-51.95,42.53a6.27,6.27,0,0,1-10.23-5.31l4.79-67a19.37,19.37,0,0,0-8.86-17.7L89.62,196.3a6.28,6.28,0,0,1,1.89-11.38l65.17-16.13a19.41,19.41,0,0,0,14.09-13.9L187.8,90a6.27,6.27,0,0,1,11.39-1.73l35.49,57a19.39,19.39,0,0,0,17.57,9.11l67-3.88A6.28,6.28,0,0,1,324.44,160.76Z" fill="#f9da4a"/></g><g id="change5_1"><path d="M193.9,85.26a6.15,6.15,0,0,1,5.29,3l35.49,57a19.39,19.39,0,0,0,16.45,9.14l1.12,0,67-3.88h.39a6.28,6.28,0,0,1,4.77,10.32L281.2,212.12A19.37,19.37,0,0,0,278,231.64l24.39,62.55a6.25,6.25,0,0,1-8.2,8.1L232,277a19.34,19.34,0,0,0-19.57,3l-51.95,42.53a6.16,6.16,0,0,1-3.94,1.43,6.28,6.28,0,0,1-6.29-6.74l4.79-67a19.37,19.37,0,0,0-8.86-17.7L89.62,196.3a6.28,6.28,0,0,1,1.89-11.38l65.17-16.13a19.41,19.41,0,0,0,14.09-13.9L187.8,90a6.22,6.22,0,0,1,6.1-4.69m0-5.5a11.66,11.66,0,0,0-11.42,8.79l-17,65a13.89,13.89,0,0,1-10.09,9.95L90.18,179.58a11.78,11.78,0,0,0-3.53,21.34l56.51,36.27a13.86,13.86,0,0,1,6.34,12.67l-4.79,67a11.6,11.6,0,0,0,3.09,8.84,11.91,11.91,0,0,0,8.69,3.79,11.55,11.55,0,0,0,7.42-2.68l52-42.53a14,14,0,0,1,8.8-3.14,13.75,13.75,0,0,1,5.22,1l62.21,25.26a11.89,11.89,0,0,0,4.46.88,11.77,11.77,0,0,0,9.71-5.18,11.58,11.58,0,0,0,1.23-10.89l-24.4-62.55a13.89,13.89,0,0,1,2.31-14l43.25-51.36a11.78,11.78,0,0,0-9-19.36l-.71,0-67,3.88-.8,0a13.79,13.79,0,0,1-11.78-6.55l-35.49-57a11.67,11.67,0,0,0-10-5.56Z" fill="inherit"/></g></svg>